<svg width="217" height="52" viewBox="0 0 217 52" fill="none" xmlns="http://www.w3.org/2000/svg">
<mask id="path-1-outside-1_282_233" maskUnits="userSpaceOnUse" x="0" y="0" width="52" height="52" fill="black">
<rect fill="white" width="52" height="52"/>
<path d="M51 26C51 39.8071 39.8071 51 26 51C12.1929 51 1 39.8071 1 26C1 12.1929 12.1929 1 26 1C39.8071 1 51 12.1929 51 26Z"/>
<path fill-rule="evenodd" clip-rule="evenodd" d="M16.3595 4.23326C15.4571 4.23326 14.7255 5.00875 14.7255 5.96536V17.6282H38.037V5.96536C38.037 5.00874 37.3055 4.23326 36.403 4.23326H16.3595ZM34.9869 6.88915H35.9673V13.8176H34.9869V6.88915Z"/>
<path fill-rule="evenodd" clip-rule="evenodd" d="M38.037 19.1293H14.7255V46.1501C14.7255 47.1067 15.4571 47.8822 16.3595 47.8822H36.403C37.3055 47.8822 38.037 47.1067 38.037 46.1501V19.1293ZM35.9673 23.1709H34.9869V32.1778H35.9673V23.1709Z"/>
</mask>
<path d="M51 26C51 39.8071 39.8071 51 26 51C12.1929 51 1 39.8071 1 26C1 12.1929 12.1929 1 26 1C39.8071 1 51 12.1929 51 26Z" fill="white"/>
<path fill-rule="evenodd" clip-rule="evenodd" d="M16.3595 4.23326C15.4571 4.23326 14.7255 5.00875 14.7255 5.96536V17.6282H38.037V5.96536C38.037 5.00874 37.3055 4.23326 36.403 4.23326H16.3595ZM34.9869 6.88915H35.9673V13.8176H34.9869V6.88915Z" fill="#3BD4BA"/>
<path fill-rule="evenodd" clip-rule="evenodd" d="M38.037 19.1293H14.7255V46.1501C14.7255 47.1067 15.4571 47.8822 16.3595 47.8822H36.403C37.3055 47.8822 38.037 47.1067 38.037 46.1501V19.1293ZM35.9673 23.1709H34.9869V32.1778H35.9673V23.1709Z" fill="#3BD4BA"/>
<path d="M14.7255 17.6282H13.7255V18.6282H14.7255V17.6282ZM38.037 17.6282V18.6282H39.037V17.6282H38.037ZM34.9869 6.88915V5.88915H33.9869V6.88915H34.9869ZM35.9673 6.88915H36.9673V5.88915H35.9673V6.88915ZM35.9673 13.8176V14.8176H36.9673V13.8176H35.9673ZM34.9869 13.8176H33.9869V14.8176H34.9869V13.8176ZM38.037 19.1293H39.037V18.1293H38.037V19.1293ZM14.7255 19.1293V18.1293H13.7255V19.1293H14.7255ZM35.9673 23.1709H36.9673V22.1709H35.9673V23.1709ZM34.9869 23.1709V22.1709H33.9869V23.1709H34.9869ZM34.9869 32.1778H33.9869V33.1778H34.9869V32.1778ZM35.9673 32.1778V33.1778H36.9673V32.1778H35.9673ZM50 26C50 39.2548 39.2548 50 26 50V52C40.3594 52 52 40.3594 52 26H50ZM26 50C12.7452 50 2 39.2548 2 26H0C0 40.3594 11.6406 52 26 52V50ZM2 26C2 12.7452 12.7452 2 26 2V0C11.6406 0 0 11.6406 0 26H2ZM26 2C39.2548 2 50 12.7452 50 26H52C52 11.6406 40.3594 0 26 0V2ZM16.3595 3.23326C14.8506 3.23326 13.7255 4.5122 13.7255 5.96536H15.7255C15.7255 5.50529 16.0635 5.23326 16.3595 5.23326V3.23326ZM13.7255 5.96536V17.6282H15.7255V5.96536H13.7255ZM14.7255 18.6282H38.037V16.6282H14.7255V18.6282ZM39.037 17.6282V5.96536H37.037V17.6282H39.037ZM39.037 5.96536C39.037 4.5122 37.9119 3.23326 36.403 3.23326V5.23326C36.6991 5.23326 37.037 5.50529 37.037 5.96536H39.037ZM36.403 3.23326H16.3595V5.23326H36.403V3.23326ZM34.9869 7.88915H35.9673V5.88915H34.9869V7.88915ZM34.9673 6.88915V13.8176H36.9673V6.88915H34.9673ZM35.9673 12.8176H34.9869V14.8176H35.9673V12.8176ZM35.9869 13.8176V6.88915H33.9869V13.8176H35.9869ZM38.037 18.1293H14.7255V20.1293H38.037V18.1293ZM13.7255 19.1293V46.1501H15.7255V19.1293H13.7255ZM13.7255 46.1501C13.7255 47.6033 14.8506 48.8822 16.3595 48.8822V46.8822C16.0635 46.8822 15.7255 46.6102 15.7255 46.1501H13.7255ZM16.3595 48.8822H36.403V46.8822H16.3595V48.8822ZM36.403 48.8822C37.9119 48.8822 39.037 47.6033 39.037 46.1501H37.037C37.037 46.6102 36.6991 46.8822 36.403 46.8822V48.8822ZM39.037 46.1501V19.1293H37.037V46.1501H39.037ZM35.9673 22.1709H34.9869V24.1709H35.9673V22.1709ZM33.9869 23.1709V32.1778H35.9869V23.1709H33.9869ZM34.9869 33.1778H35.9673V31.1778H34.9869V33.1778ZM36.9673 32.1778V23.1709H34.9673V32.1778H36.9673Z" fill="#3BD4BA" mask="url(#path-1-outside-1_282_233)"/>
<path d="M71.5246 37C71.1074 37 70.7566 36.8578 70.4721 36.5733C70.1877 36.2889 70.0454 35.9381 70.0454 35.5209V16.264C70.0454 15.8278 70.1877 15.477 70.4721 15.2116C70.7566 14.9271 71.1074 14.7849 71.5246 14.7849C71.9607 14.7849 72.3115 14.9271 72.577 15.2116C72.8614 15.477 73.0037 15.8278 73.0037 16.264V35.5209C73.0037 35.9381 72.8614 36.2889 72.577 36.5733C72.3115 36.8578 71.9607 37 71.5246 37ZM91.1146 37.0284C90.6974 37.0284 90.3466 36.8957 90.0621 36.6302C89.7966 36.3458 89.6639 35.995 89.6639 35.5778V28.5804C89.6639 27.4996 89.4648 26.6178 89.0666 25.9351C88.6683 25.2524 88.1279 24.7499 87.4452 24.4276C86.7815 24.0862 86.0135 23.9156 85.1412 23.9156C84.3448 23.9156 83.6242 24.0767 82.9794 24.3991C82.3347 24.7215 81.8227 25.1576 81.4434 25.7076C81.0642 26.2385 80.8746 26.8548 80.8746 27.5564H79.0826C79.0826 26.3618 79.367 25.2999 79.9359 24.3707C80.5237 23.4225 81.3202 22.6735 82.3252 22.1236C83.3303 21.5736 84.4586 21.2987 85.7101 21.2987C87.0186 21.2987 88.1848 21.5831 89.2088 22.152C90.2517 22.7019 91.0671 23.5173 91.655 24.5982C92.2618 25.6791 92.5652 27.0065 92.5652 28.5804V35.5778C92.5652 35.995 92.423 36.3458 92.1386 36.6302C91.8731 36.8957 91.5317 37.0284 91.1146 37.0284ZM79.4239 37.0284C79.0067 37.0284 78.6559 36.8957 78.3714 36.6302C78.106 36.3458 77.9732 35.995 77.9732 35.5778V22.8916C77.9732 22.4554 78.106 22.1046 78.3714 21.8391C78.6559 21.5736 79.0067 21.4409 79.4239 21.4409C79.86 21.4409 80.2108 21.5736 80.4763 21.8391C80.7418 22.1046 80.8746 22.4554 80.8746 22.8916V35.5778C80.8746 35.995 80.7418 36.3458 80.4763 36.6302C80.2108 36.8957 79.86 37.0284 79.4239 37.0284ZM103.421 37.1138C101.999 37.1138 100.738 36.7819 99.6377 36.1182C98.5568 35.4356 97.7034 34.5064 97.0777 33.3307C96.4519 32.136 96.139 30.7707 96.139 29.2347C96.139 27.6797 96.4709 26.3144 97.1346 25.1387C97.8172 23.944 98.7464 23.0148 99.9221 22.3511C101.098 21.6684 102.454 21.3271 103.99 21.3271C105.507 21.3271 106.853 21.6684 108.029 22.3511C109.204 23.0148 110.124 23.944 110.788 25.1387C111.471 26.3144 111.812 27.6797 111.812 29.2347H110.134C110.134 30.7707 109.84 32.136 109.252 33.3307C108.683 34.5064 107.896 35.4356 106.891 36.1182C105.886 36.7819 104.729 37.1138 103.421 37.1138ZM103.933 43.4569C102.586 43.4569 101.325 43.1914 100.15 42.6604C98.974 42.1295 97.9784 41.352 97.163 40.328C96.9165 40.0056 96.8217 39.6738 96.8786 39.3324C96.9544 38.9911 97.144 38.7161 97.4474 38.5076C97.7888 38.28 98.1396 38.2041 98.4999 38.28C98.8791 38.3559 99.1826 38.5455 99.4101 38.8489C99.9221 39.4936 100.567 39.9961 101.344 40.3564C102.122 40.7167 103.004 40.8969 103.99 40.8969C104.9 40.8969 105.734 40.6788 106.493 40.2427C107.27 39.8065 107.887 39.1618 108.342 38.3084C108.797 37.4551 109.024 36.4121 109.024 35.1796V31.1404L109.963 28.6373L111.812 29.2347V35.3787C111.812 36.8767 111.48 38.2326 110.816 39.4462C110.153 40.6788 109.223 41.6554 108.029 42.376C106.853 43.0966 105.488 43.4569 103.933 43.4569ZM103.99 34.5538C104.976 34.5538 105.848 34.3262 106.607 33.8711C107.365 33.416 107.953 32.7902 108.37 31.9938C108.806 31.1973 109.024 30.2776 109.024 29.2347C109.024 28.1917 108.806 27.272 108.37 26.4756C107.953 25.6601 107.365 25.0249 106.607 24.5698C105.848 24.1147 104.976 23.8871 103.99 23.8871C103.004 23.8871 102.131 24.1147 101.373 24.5698C100.614 25.0249 100.017 25.6601 99.5808 26.4756C99.1446 27.272 98.9266 28.1917 98.9266 29.2347C98.9266 30.2776 99.1446 31.1973 99.5808 31.9938C100.017 32.7902 100.614 33.416 101.373 33.8711C102.131 34.3262 103.004 34.5538 103.99 34.5538ZM117.097 27.272C117.097 26.1342 117.372 25.1197 117.922 24.2284C118.491 23.3182 119.249 22.5976 120.197 22.0667C121.146 21.5357 122.189 21.2702 123.326 21.2702C124.464 21.2702 125.308 21.4598 125.858 21.8391C126.427 22.1994 126.645 22.6356 126.512 23.1476C126.455 23.413 126.341 23.6216 126.171 23.7733C126.019 23.9061 125.839 23.9914 125.63 24.0293C125.422 24.0673 125.194 24.0578 124.948 24.0009C123.734 23.7544 122.644 23.7354 121.677 23.944C120.709 24.1526 119.941 24.5413 119.373 25.1102C118.823 25.6791 118.548 26.3997 118.548 27.272H117.097ZM117.125 37C116.67 37 116.32 36.8862 116.073 36.6587C115.826 36.4121 115.703 36.0519 115.703 35.5778V22.8631C115.703 22.408 115.826 22.0572 116.073 21.8107C116.32 21.5641 116.67 21.4409 117.125 21.4409C117.6 21.4409 117.95 21.5641 118.178 21.8107C118.424 22.0382 118.548 22.389 118.548 22.8631V35.5778C118.548 36.0329 118.424 36.3837 118.178 36.6302C117.95 36.8767 117.6 37 117.125 37ZM135.281 37.1138C133.707 37.1138 132.304 36.7819 131.071 36.1182C129.858 35.4356 128.9 34.5064 128.199 33.3307C127.516 32.136 127.175 30.7707 127.175 29.2347C127.175 27.6797 127.497 26.3144 128.142 25.1387C128.805 23.944 129.716 23.0148 130.872 22.3511C132.029 21.6684 133.356 21.3271 134.855 21.3271C136.334 21.3271 137.604 21.659 138.666 22.3227C139.728 22.9674 140.534 23.8681 141.084 25.0249C141.653 26.1627 141.937 27.4806 141.937 28.9787C141.937 29.339 141.814 29.6424 141.567 29.8889C141.321 30.1164 141.008 30.2302 140.629 30.2302H129.166V27.9547H140.543L139.377 28.7511C139.358 27.803 139.169 26.9591 138.808 26.2196C138.448 25.461 137.936 24.8637 137.272 24.4276C136.609 23.9914 135.803 23.7733 134.855 23.7733C133.774 23.7733 132.844 24.0104 132.067 24.4844C131.308 24.9585 130.73 25.6127 130.332 26.4471C129.934 27.2625 129.735 28.1917 129.735 29.2347C129.735 30.2776 129.972 31.2068 130.446 32.0222C130.92 32.8376 131.574 33.4824 132.408 33.9564C133.243 34.4305 134.2 34.6676 135.281 34.6676C135.869 34.6676 136.466 34.5633 137.073 34.3547C137.699 34.1271 138.202 33.8711 138.581 33.5867C138.865 33.3781 139.169 33.2738 139.491 33.2738C139.832 33.2548 140.126 33.3496 140.373 33.5582C140.695 33.8427 140.866 34.1556 140.885 34.4969C140.904 34.8382 140.752 35.1321 140.43 35.3787C139.785 35.8907 138.979 36.3079 138.012 36.6302C137.064 36.9526 136.154 37.1138 135.281 37.1138ZM151.71 37.1138C150.231 37.1138 148.894 36.7724 147.699 36.0898C146.523 35.3881 145.585 34.44 144.883 33.2453C144.2 32.0507 143.859 30.7043 143.859 29.2062C143.859 27.7081 144.172 26.3713 144.798 25.1956C145.442 24.0009 146.315 23.0622 147.415 22.3796C148.514 21.6779 149.756 21.3271 151.141 21.3271C152.26 21.3271 153.293 21.5641 154.241 22.0382C155.189 22.4933 155.986 23.1191 156.631 23.9156V16.2356C156.631 15.7994 156.763 15.4486 157.029 15.1831C157.313 14.9176 157.664 14.7849 158.081 14.7849C158.517 14.7849 158.868 14.9176 159.134 15.1831C159.399 15.4486 159.532 15.7994 159.532 16.2356V29.2062C159.532 30.7043 159.181 32.0507 158.479 33.2453C157.797 34.44 156.868 35.3881 155.692 36.0898C154.516 36.7724 153.189 37.1138 151.71 37.1138ZM151.71 34.5538C152.677 34.5538 153.54 34.3262 154.298 33.8711C155.057 33.397 155.654 32.7523 156.09 31.9369C156.526 31.1215 156.744 30.2113 156.744 29.2062C156.744 28.1822 156.526 27.272 156.09 26.4756C155.654 25.6791 155.057 25.0533 154.298 24.5982C153.54 24.1241 152.677 23.8871 151.71 23.8871C150.762 23.8871 149.899 24.1241 149.121 24.5982C148.363 25.0533 147.756 25.6791 147.301 26.4756C146.865 27.272 146.647 28.1822 146.647 29.2062C146.647 30.2113 146.865 31.1215 147.301 31.9369C147.756 32.7523 148.363 33.397 149.121 33.8711C149.899 34.3262 150.762 34.5538 151.71 34.5538ZM170.771 37.1422C169.463 37.1422 168.287 36.8673 167.244 36.3173C166.22 35.7484 165.404 34.9236 164.798 33.8427C164.21 32.7618 163.916 31.4344 163.916 29.8604V22.8631C163.916 22.4459 164.049 22.1046 164.314 21.8391C164.599 21.5547 164.949 21.4124 165.367 21.4124C165.784 21.4124 166.125 21.5547 166.391 21.8391C166.675 22.1046 166.817 22.4459 166.817 22.8631V29.8604C166.817 30.9224 167.016 31.8041 167.415 32.5058C167.813 33.1884 168.353 33.7004 169.036 34.0418C169.719 34.3641 170.487 34.5253 171.34 34.5253C172.155 34.5253 172.876 34.3641 173.502 34.0418C174.146 33.7194 174.658 33.2833 175.038 32.7333C175.417 32.1834 175.607 31.5671 175.607 30.8844H177.399C177.399 32.0601 177.105 33.1221 176.517 34.0702C175.948 35.0184 175.161 35.7674 174.156 36.3173C173.17 36.8673 172.042 37.1422 170.771 37.1422ZM177.057 37C176.64 37 176.289 36.8673 176.005 36.6018C175.739 36.3173 175.607 35.9665 175.607 35.5493V22.8631C175.607 22.427 175.739 22.0761 176.005 21.8107C176.289 21.5452 176.64 21.4124 177.057 21.4124C177.493 21.4124 177.844 21.5452 178.11 21.8107C178.375 22.0761 178.508 22.427 178.508 22.8631V35.5493C178.508 35.9665 178.375 36.3173 178.11 36.6018C177.844 36.8673 177.493 37 177.057 37ZM190.245 37.1138C188.728 37.1138 187.372 36.7724 186.178 36.0898C185.002 35.3881 184.073 34.4495 183.39 33.2738C182.726 32.0791 182.395 30.7327 182.395 29.2347C182.395 27.6987 182.726 26.3333 183.39 25.1387C184.054 23.944 184.964 23.0148 186.121 22.3511C187.278 21.6684 188.605 21.3271 190.103 21.3271C191.222 21.3271 192.246 21.5452 193.175 21.9813C194.104 22.3985 194.939 23.0338 195.678 23.8871C195.944 24.1905 196.038 24.5034 195.963 24.8258C195.887 25.1481 195.678 25.4326 195.337 25.6791C195.071 25.8687 194.777 25.9351 194.455 25.8782C194.133 25.8024 193.839 25.6317 193.573 25.3662C192.644 24.3801 191.487 23.8871 190.103 23.8871C189.136 23.8871 188.283 24.1147 187.543 24.5698C186.803 25.0059 186.225 25.6222 185.808 26.4187C185.391 27.2151 185.182 28.1538 185.182 29.2347C185.182 30.2587 185.391 31.1689 185.808 31.9653C186.244 32.7618 186.841 33.397 187.6 33.8711C188.358 34.3262 189.24 34.5538 190.245 34.5538C190.909 34.5538 191.487 34.4779 191.98 34.3262C192.492 34.1556 192.957 33.8996 193.374 33.5582C193.678 33.3117 193.99 33.179 194.313 33.16C194.635 33.1221 194.92 33.2074 195.166 33.416C195.488 33.6815 195.669 33.9849 195.707 34.3262C195.744 34.6486 195.631 34.9425 195.365 35.208C194 36.4785 192.293 37.1138 190.245 37.1138ZM207.158 37.1138C205.584 37.1138 204.181 36.7819 202.948 36.1182C201.735 35.4356 200.777 34.5064 200.075 33.3307C199.393 32.136 199.051 30.7707 199.051 29.2347C199.051 27.6797 199.374 26.3144 200.018 25.1387C200.682 23.944 201.592 23.0148 202.749 22.3511C203.906 21.6684 205.233 21.3271 206.731 21.3271C208.21 21.3271 209.481 21.659 210.543 22.3227C211.605 22.9674 212.411 23.8681 212.961 25.0249C213.529 26.1627 213.814 27.4806 213.814 28.9787C213.814 29.339 213.691 29.6424 213.444 29.8889C213.198 30.1164 212.885 30.2302 212.505 30.2302H201.042V27.9547H212.42L211.254 28.7511C211.235 27.803 211.045 26.9591 210.685 26.2196C210.325 25.461 209.813 24.8637 209.149 24.4276C208.485 23.9914 207.679 23.7733 206.731 23.7733C205.65 23.7733 204.721 24.0104 203.944 24.4844C203.185 24.9585 202.607 25.6127 202.209 26.4471C201.81 27.2625 201.611 28.1917 201.611 29.2347C201.611 30.2776 201.848 31.2068 202.322 32.0222C202.796 32.8376 203.451 33.4824 204.285 33.9564C205.119 34.4305 206.077 34.6676 207.158 34.6676C207.746 34.6676 208.343 34.5633 208.95 34.3547C209.576 34.1271 210.078 33.8711 210.457 33.5867C210.742 33.3781 211.045 33.2738 211.368 33.2738C211.709 33.2548 212.003 33.3496 212.249 33.5582C212.572 33.8427 212.743 34.1556 212.761 34.4969C212.78 34.8382 212.629 35.1321 212.306 35.3787C211.662 35.8907 210.856 36.3079 209.889 36.6302C208.94 36.9526 208.03 37.1138 207.158 37.1138Z" fill="#3BD4BA"/>
</svg>
